<?xml version="1.0" standalone="no"?>
<!DOCTYPE svg PUBLIC "-//W3C//DTD SVG 20010904//EN"
 "http://www.w3.org/TR/2001/REC-SVG-20010904/DTD/svg10.dtd">
<svg version="1.0" xmlns="http://www.w3.org/2000/svg"
 width="700.000000pt" height="700.000000pt" viewBox="0 0 700.000000 700.000000"
 preserveAspectRatio="xMidYMid meet">
<metadata>
Created by potrace 1.11, written by Peter Selinger 2001-2013
</metadata>
<g transform="translate(0.000000,700.000000) scale(0.100000,-0.100000)"
fill="#000000" stroke="none">
<path d="M1144 6682 l-20 -3 0 -3179 c0 -2880 1 -3180 15 -3181 73 -3 883 0
887 3 2 3 5 1226 7 2719 l2 2713 735 0 c712 0 801 -2 921 -23 440 -75 770
-380 868 -803 29 -120 33 -160 33 -283 0 -353 -162 -684 -432 -883 -130 -95
-323 -173 -490 -197 -25 -4 -58 -9 -75 -12 -16 -3 -372 -6 -790 -7 -610 -2
-759 -5 -757 -15 2 -11 195 -266 212 -281 3 -3 17 -21 30 -40 13 -19 27 -37
30 -40 3 -3 23 -27 45 -55 21 -27 42 -52 45 -55 3 -3 34 -41 70 -85 36 -44 75
-91 87 -105 18 -21 107 -129 381 -459 20 -25 42 -49 47 -55 6 -6 17 -20 25
-32 8 -11 36 -45 62 -75 25 -30 160 -191 299 -359 139 -168 373 -449 519 -625
146 -176 378 -455 514 -620 137 -165 255 -306 261 -314 11 -11 114 -13 581
-13 313 1 580 1 593 1 21 1 22 3 10 20 -15 21 -419 503 -428 511 -5 4 -260
308 -332 395 -16 19 -217 257 -299 355 -21 25 -116 137 -210 250 -94 113 -181
216 -193 230 -12 14 -56 66 -97 115 -41 50 -84 101 -96 115 -109 126 -332 395
-330 398 2 2 50 14 107 27 281 65 495 156 714 306 318 217 551 519 690 893 34
92 78 248 89 320 4 21 8 41 10 45 2 3 7 42 11 86 4 44 9 83 11 87 5 8 4 295
-1 353 -14 170 -44 327 -91 476 -32 104 -109 291 -141 341 -13 21 -23 41 -23
46 0 17 -125 199 -201 292 -340 420 -863 668 -1468 696 -125 6 -2398 12 -2437
6z"/>
</g>
</svg>
