<?xml version="1.0" standalone="no"?>
<!DOCTYPE svg PUBLIC "-//W3C//DTD SVG 20010904//EN"
 "http://www.w3.org/TR/2001/REC-SVG-20010904/DTD/svg10.dtd">
<svg version="1.0" xmlns="http://www.w3.org/2000/svg"
 width="700.000000pt" height="700.000000pt" viewBox="0 0 700.000000 700.000000"
 preserveAspectRatio="xMidYMid meet">
<metadata>
Created by potrace 1.11, written by Peter Selinger 2001-2013
</metadata>
<g transform="translate(0.000000,700.000000) scale(0.100000,-0.100000)"
fill="#000000" stroke="none">
<path d="M3245 6844 c-16 -2 -77 -9 -135 -15 -1111 -118 -2127 -840 -2625
-1864 -165 -341 -258 -656 -317 -1075 -20 -148 -17 -661 6 -820 36 -254 90
-478 170 -705 l35 -100 -53 -54 -54 -54 45 -100 c193 -436 511 -866 878 -1186
541 -473 1173 -754 1900 -847 197 -25 616 -26 810 -1 423 55 776 159 1140 337
914 447 1600 1294 1849 2285 74 295 100 519 101 850 0 263 -8 362 -46 590 -98
584 -350 1144 -725 1609 -370 460 -915 860 -1435 1054 l-56 21 -53 -54 -52
-53 -57 19 c-195 68 -537 138 -766 158 -109 10 -488 13 -560 5z m115 -416 c57
-150 111 -291 120 -312 l16 -39 119 311 120 312 132 0 133 0 0 -435 0 -435
-90 0 -90 0 -2 296 -3 297 -111 -294 -111 -294 -98 0 -98 0 -111 294 -111 294
-3 -297 -2 -296 -90 0 -90 0 0 435 0 435 133 0 133 0 104 -272z m2265 -520
c28 -34 53 -67 58 -74 6 -10 -168 -258 -296 -422 -13 -17 -8 -15 252 102 117
53 219 96 225 95 9 0 84 -85 123 -140 11 -15 -6 -46 -133 -229 -80 -117 -143
-214 -141 -216 2 -3 107 46 232 108 l228 112 44 -49 c25 -28 53 -61 63 -75
l18 -26 -368 -184 c-332 -166 -371 -183 -382 -168 -7 9 -40 49 -72 88 l-59 71
18 32 c10 18 74 115 142 216 67 102 121 186 119 188 -2 2 -108 -42 -237 -97
-128 -55 -237 -99 -240 -98 -19 8 -147 174 -141 184 21 33 486 644 491 643 3
0 29 -28 56 -61z m-4093 -51 c71 -58 111 -135 105 -199 -2 -27 -2 -48 0 -48 2
0 18 7 36 16 39 21 121 21 168 2 43 -19 101 -77 123 -123 26 -53 21 -134 -11
-194 -16 -29 -135 -180 -266 -336 l-239 -284 -331 276 c-183 152 -335 279
-339 282 -10 9 442 548 495 590 58 46 93 60 154 61 47 0 58 -4 105 -43z m1928
-486 c0 -191 -2 -231 -15 -241 -13 -11 -15 2 -15 106 0 66 -3 163 -7 217 l-6
97 -57 0 c-124 0 -456 -73 -576 -127 -28 -12 -65 -46 -116 -108 -205 -245
-479 -466 -770 -620 -104 -54 -108 -58 -151 -128 -168 -271 -272 -591 -301
-924 l-6 -63 94 0 c51 0 161 -3 244 -7 126 -5 150 -8 141 -20 -9 -10 -65 -13
-263 -13 l-252 0 4 68 c27 521 242 1003 611 1373 369 368 830 575 1371 612 25
2 51 4 58 5 9 2 12 -49 12 -227z m307 204 c355 -46 703 -189 991 -408 64 -48
89 -73 80 -78 -9 -6 19 -40 95 -116 181 -182 295 -340 402 -558 65 -132 141
-342 151 -419 7 -45 -23 -131 -110 -322 l-37 -81 -556 -6 c-306 -4 -702 -7
-880 -7 l-323 0 -1 73 c-2 128 -25 155 -32 37 -2 -30 -4 385 -5 923 l-2 977
54 0 c30 0 108 -7 173 -15z m1938 -1789 c22 -167 20 -438 -4 -603 -57 -381
-194 -713 -425 -1023 -90 -122 -314 -346 -436 -436 -399 -297 -843 -444 -1338
-444 -148 0 -339 14 -351 26 -3 3 6 16 20 30 l25 25 115 -12 c68 -7 174 -9
264 -5 557 22 1057 241 1449 632 332 333 540 744 613 1214 21 139 24 460 5
593 -12 85 -12 89 9 118 29 42 35 30 54 -115z m-1387 -243 c-141 -2 -375 -2
-520 0 -145 1 -29 2 257 2 286 0 404 -1 263 -2z m-1458 -90 c-36 -2 -72 -6
-80 -10 -35 -14 81 -22 353 -22 l287 -1 0 -774 c0 -425 -3 -787 -6 -804 -6
-29 -13 -33 -118 -70 -149 -53 -314 -99 -471 -132 l-130 -26 -95 45 c-222 105
-442 265 -609 444 -40 43 -57 55 -66 47 -10 -8 -29 10 -81 77 -175 227 -309
503 -378 783 -28 116 -56 311 -56 396 l0 54 758 -2 c416 -1 728 -3 692 -5z
m1604 -2 c52 -20 -38 -26 -446 -29 l-437 -3 -3 -452 c-2 -249 -7 -458 -12
-466 -7 -11 -10 -11 -17 0 -5 8 -9 227 -9 487 l0 472 453 -1 c248 0 461 -4
471 -8z"/>
<path d="M1318 5652 c-32 -20 -279 -312 -273 -322 2 -3 37 -34 78 -68 l74 -61
119 141 c66 78 127 153 136 167 37 54 15 121 -48 147 -43 18 -53 18 -86 -4z"/>
<path d="M1613 5448 c-20 -10 -289 -323 -293 -342 -2 -9 147 -136 159 -136 7
0 137 151 244 283 53 65 60 102 28 151 -34 51 -88 68 -138 44z"/>
</g>
</svg>
